<svg width="35" height="30" viewBox="0 0 35 30" fill="none" xmlns="http://www.w3.org/2000/svg">
<g clip-path="url(#clip0_3417_3476)">
<path d="M35 15C35 6.71578 27.1649 0 17.5 0C7.83508 0 0 6.71566 0 15C0 22.4869 6.39953 28.6925 14.7656 29.8178V19.3359H10.3223V15H14.7656V11.6953C14.7656 7.93594 17.3783 5.85938 21.3756 5.85938C23.2903 5.85938 25.293 6.15234 25.293 6.15234V9.84375H23.0863C20.9122 9.84375 20.2344 11 20.2344 12.1863V15H25.0879L24.312 19.3359H20.2344V29.8178C28.6005 28.6925 35 22.487 35 15Z" fill="#1877F2"/>
<path d="M24.312 19.3359L25.0879 15H20.2344V12.1863C20.2344 10.9999 20.9124 9.84375 23.0863 9.84375H25.293V6.15234C25.293 6.15234 23.2903 5.85938 21.3756 5.85938C17.3783 5.85938 14.7656 7.93594 14.7656 11.6953V15H10.3223V19.3359H14.7656V29.8178C15.6702 29.9393 16.5844 30.0002 17.5 30C18.4156 30.0002 19.3298 29.9393 20.2344 29.8178V19.3359H24.312Z" fill="white"/>
</g>
<defs>
<clipPath id="clip0_3417_3476">
<rect width="35" height="30" fill="white"/>
</clipPath>
</defs>
</svg>
