<svg width="35" height="30" viewBox="0 0 35 30" fill="none" xmlns="http://www.w3.org/2000/svg">
<g clip-path="url(#clip0_3417_3479)">
<path d="M26.7969 0H8.20312C3.67266 0 0 3.148 0 7.03125V22.9688C0 26.852 3.67266 30 8.20312 30H26.7969C31.3273 30 35 26.852 35 22.9688V7.03125C35 3.148 31.3273 0 26.7969 0Z" fill="url(#paint0_radial_3417_3479)"/>
<path d="M26.7969 0H8.20312C3.67266 0 0 3.148 0 7.03125V22.9688C0 26.852 3.67266 30 8.20312 30H26.7969C31.3273 30 35 26.852 35 22.9688V7.03125C35 3.148 31.3273 0 26.7969 0Z" fill="url(#paint1_radial_3417_3479)"/>
<path d="M17.5012 3.28125C13.7882 3.28125 13.3221 3.2952 11.8639 3.35203C10.4084 3.40922 9.41486 3.60668 8.54561 3.89648C7.64627 4.19578 6.88352 4.59621 6.12363 5.24777C5.36307 5.89922 4.8959 6.55301 4.54563 7.32352C4.20656 8.06883 3.97592 8.92078 3.91043 10.1678C3.84521 11.4178 3.82812 11.8174 3.82812 15.0001C3.82812 18.1828 3.84453 18.581 3.9107 19.8309C3.9777 21.0785 4.20807 21.9301 4.5459 22.6752C4.89535 23.4461 5.36252 24.0998 6.12268 24.7512C6.88242 25.4031 7.64518 25.8045 8.54383 26.1038C9.41377 26.3936 10.4074 26.591 11.8627 26.6482C13.3211 26.705 13.7867 26.719 17.4996 26.719C21.213 26.719 21.6776 26.705 23.1358 26.6482C24.5913 26.591 25.586 26.3936 26.4559 26.1038C27.3548 25.8045 28.1165 25.4031 28.8761 24.7512C29.6367 24.0998 30.1037 23.4461 30.4541 22.6755C30.7902 21.9301 31.0209 21.0783 31.0893 19.8312C31.1548 18.5812 31.1719 18.1828 31.1719 15.0001C31.1719 11.8174 31.1548 11.418 31.0893 10.168C31.0209 8.92043 30.7902 8.06895 30.4541 7.32387C30.1037 6.55301 29.6367 5.89922 28.8761 5.24777C28.1157 4.59598 27.3551 4.19555 26.4551 3.8966C25.5835 3.60668 24.5894 3.4091 23.1339 3.35203C21.6755 3.2952 21.2112 3.28125 17.497 3.28125H17.5012ZM16.2747 5.39309C16.6388 5.39262 17.045 5.39309 17.5012 5.39309C21.1518 5.39309 21.5843 5.40434 23.0259 5.46047C24.3589 5.51273 25.0824 5.70363 25.5644 5.86406C26.2024 6.07641 26.6573 6.33035 27.1355 6.74063C27.614 7.15078 27.9102 7.54137 28.1586 8.08828C28.3458 8.50078 28.5688 9.12094 28.6295 10.2635C28.6949 11.4989 28.7092 11.8699 28.7092 14.9974C28.7092 18.1249 28.6949 18.4961 28.6295 19.7313C28.5685 20.8739 28.3458 21.4941 28.1586 21.9067C27.9109 22.4536 27.614 22.843 27.1355 23.2529C26.657 23.6631 26.2027 23.9169 25.5644 24.1294C25.083 24.2905 24.3589 24.4809 23.0259 24.5332C21.5846 24.5893 21.1518 24.6015 17.5012 24.6015C13.8506 24.6015 13.4179 24.5893 11.9767 24.5332C10.6437 24.4805 9.92018 24.2896 9.43783 24.1291C8.7999 23.9167 8.34408 23.6629 7.86557 23.2527C7.38705 22.8425 7.09092 22.4529 6.8425 21.9057C6.65533 21.4931 6.43234 20.873 6.37164 19.7304C6.30615 18.495 6.29303 18.124 6.29303 14.9945C6.29303 11.8651 6.30615 11.496 6.37164 10.2606C6.43262 9.11801 6.65533 8.49785 6.8425 8.08477C7.09037 7.53785 7.38705 7.14727 7.8657 6.73711C8.34422 6.32695 8.7999 6.07301 9.43797 5.8602C9.9199 5.69906 10.6437 5.50863 11.9767 5.45613C13.2379 5.40727 13.7267 5.39262 16.2747 5.39016V5.39309ZM24.7993 7.33887C23.8935 7.33887 23.1587 7.96816 23.1587 8.74465C23.1587 9.52102 23.8935 10.1509 24.7993 10.1509C25.705 10.1509 26.4399 9.52102 26.4399 8.74465C26.4399 7.96828 25.705 7.3384 24.7993 7.3384V7.33887ZM17.5012 8.98195C13.6239 8.98195 10.4802 11.6766 10.4802 15.0001C10.4802 18.3237 13.6239 21.017 17.5012 21.017C21.3787 21.017 24.5213 18.3237 24.5213 15.0001C24.5213 11.6767 21.3784 8.98195 17.501 8.98195H17.5012ZM17.5012 11.0938C20.0181 11.0938 22.0586 12.8426 22.0586 15.0001C22.0586 17.1574 20.0181 18.9064 17.5012 18.9064C14.9842 18.9064 12.944 17.1574 12.944 15.0001C12.944 12.8426 14.9842 11.0938 17.5012 11.0938Z" fill="white"/>
</g>
<defs>
<radialGradient id="paint0_radial_3417_3479" cx="0" cy="0" r="1" gradientUnits="userSpaceOnUse" gradientTransform="translate(9.29687 32.3106) rotate(-90) scale(29.7322 32.2622)">
<stop stop-color="#FFDD55"/>
<stop offset="0.1" stop-color="#FFDD55"/>
<stop offset="0.5" stop-color="#FF543E"/>
<stop offset="1" stop-color="#C837AB"/>
</radialGradient>
<radialGradient id="paint1_radial_3417_3479" cx="0" cy="0" r="1" gradientUnits="userSpaceOnUse" gradientTransform="translate(-5.86264 2.16105) rotate(76.8555) scale(13.3826 63.4744)">
<stop stop-color="#3771C8"/>
<stop offset="0.128" stop-color="#3771C8"/>
<stop offset="1" stop-color="#6600FF" stop-opacity="0"/>
</radialGradient>
<clipPath id="clip0_3417_3479">
<rect width="35" height="30" fill="white"/>
</clipPath>
</defs>
</svg>
