<svg width="35" height="30" viewBox="0 0 35 30" fill="none" xmlns="http://www.w3.org/2000/svg">
<g clip-path="url(#clip0_3417_3484)">
<path d="M34.227 4.67917C34.0263 3.77476 33.6347 2.95024 33.0912 2.28771C32.5478 1.62519 31.8714 1.14777 31.1295 0.903C28.4135 0 17.4823 0 17.4823 0C17.4823 0 6.5505 0.0273333 3.83444 0.930333C3.09254 1.17512 2.41618 1.65256 1.87272 2.31512C1.32927 2.97768 0.937674 3.80223 0.73694 4.70667C-0.0846026 10.5897 -0.403294 19.554 0.759499 25.2017C0.960253 26.1061 1.35186 26.9306 1.89531 27.5931C2.43877 28.2556 3.11511 28.7331 3.857 28.9778C6.57305 29.8808 17.5045 29.8808 17.5045 29.8808C17.5045 29.8808 28.4359 29.8808 31.1518 28.9778C31.8937 28.7331 32.5701 28.2557 33.1136 27.5932C33.6571 26.9306 34.0487 26.1061 34.2494 25.2017C35.116 19.3103 35.383 10.3515 34.227 4.67917Z" fill="#FF0000"/>
<path d="M14.0029 21.3434L23.0712 14.9404L14.0029 8.53735V21.3434Z" fill="white"/>
</g>
<defs>
<clipPath id="clip0_3417_3484">
<rect width="35" height="30" fill="white"/>
</clipPath>
</defs>
</svg>
